# Low-poly spirit lantern for CSE 160 Assignment 4.
v -0.60 0.00 -0.60
v 0.60 0.00 -0.60
v 0.60 0.00 0.60
v -0.60 0.00 0.60
v -0.50 0.20 -0.50
v 0.50 0.20 -0.50
v 0.50 0.20 0.50
v -0.50 0.20 0.50
v -0.34 0.20 -0.34
v 0.34 0.20 -0.34
v 0.34 0.20 0.34
v -0.34 0.20 0.34
v -0.34 1.00 -0.34
v 0.34 1.00 -0.34
v 0.34 1.00 0.34
v -0.34 1.00 0.34
v -0.58 1.00 -0.58
v 0.58 1.00 -0.58
v 0.58 1.00 0.58
v -0.58 1.00 0.58
v 0.00 1.46 0.00
v -0.18 1.46 -0.18
v 0.18 1.46 -0.18
v 0.18 1.46 0.18
v -0.18 1.46 0.18
v 0.00 1.78 0.00
f 1 2 6 5
f 2 3 7 6
f 3 4 8 7
f 4 1 5 8
f 5 6 7 8
f 9 10 14 13
f 10 11 15 14
f 11 12 16 15
f 12 9 13 16
f 13 14 15 16
f 17 18 21
f 18 19 21
f 19 20 21
f 20 17 21
f 17 18 23 22
f 18 19 24 23
f 19 20 25 24
f 20 17 22 25
f 22 23 26
f 23 24 26
f 24 25 26
f 25 22 26
